<?xml version="1.0" encoding="utf-8"?><svg xmlns="http://www.w3.org/2000/svg" xmlns:xlink="http://www.w3.org/1999/xlink"><symbol viewBox="0 0 32 32" id="acardeon-arrow" xmlns="http://www.w3.org/2000/svg"><path d="M9.333 11.5L8 12.786l8 7.714 8-7.714-1.333-1.286L16 17.929 9.333 11.5z"/></symbol><symbol viewBox="0 0 179 179" id="bg-reviews" xmlns="http://www.w3.org/2000/svg"><path d="M77.296 65.09c0 6.741-5.465 12.206-12.205 12.206S52.886 71.83 52.886 65.09s5.464-12.205 12.205-12.205c6.74 0 12.205 5.464 12.205 12.205zm36.613 12.206c6.74 0 12.205-5.465 12.205-12.205s-5.465-12.205-12.205-12.205-12.204 5.464-12.204 12.205c0 6.74 5.464 12.205 12.204 12.205z" fill-opacity=".05"/><path fill-rule="evenodd" clip-rule="evenodd" d="M65.09 179v-48.818H32.546C14.571 130.182 0 115.611 0 97.636v-65.09C0 14.57 14.571 0 32.545 0h113.91C164.429 0 179 14.571 179 32.545v65.091c0 17.975-14.571 32.546-32.545 32.546h-32.546L65.091 179zm16.274-65.091v25.805l25.805-25.805h39.286c8.987 0 16.272-7.285 16.272-16.273v-65.09c0-8.988-7.285-16.273-16.272-16.273H32.545c-8.987 0-16.272 7.285-16.272 16.272v65.091c0 8.988 7.285 16.273 16.272 16.273h48.819z" fill-opacity=".05"/></symbol><symbol viewBox="0 0 24 24" id="doctors-icon" xmlns="http://www.w3.org/2000/svg"><path d="M4.004 10.607c0-1.282-.009-2.564 0-3.847.018-2.653 2.043-4.714 4.696-4.74a363.43 363.43 0 017.606 0c2.653.026 4.678 2.087 4.687 4.74.01 2.494.01 4.98 0 7.473-.017 4.423-3.37 8.137-7.659 8.5-4.519.38-8.437-2.61-9.215-7.049a9.92 9.92 0 01-.115-1.45c-.009-1.212 0-2.415 0-3.627zm1.901 2.76c-.159 2.76.734 5.014 3.096 6.482 2.388 1.477 4.855 1.433 7.199-.123 2.237-1.495 3.06-3.697 2.9-6.36H5.906zm13.187-1.964c.009-.15.018-.265.018-.38 0-1.397.008-2.795 0-4.2-.018-1.734-1.23-2.928-2.972-2.937H8.842c-1.734 0-2.945 1.203-2.963 2.936-.009 1.398 0 2.795 0 4.201 0 .115.018.23.026.372 4.396.008 8.765.008 13.187.008z"/><path d="M15.315 6.716v1.883h-1.848v1.875h-1.902V8.626H9.708V6.724h1.848V4.867h1.893v1.849h1.866z"/></symbol><symbol viewBox="0 0 15 30" id="facebook" xmlns="http://www.w3.org/2000/svg"><path d="M0 16.333v-5.326h4.426c0-.328-.01-.598 0-.856.046-1.643-.068-3.308.182-4.916.475-3.12 2.762-5.103 5.864-5.22 1.494-.059 3 .07 4.528.117V4.99h-.996c-.759.012-1.506.012-2.264.047-1.178.059-1.88.657-1.948 1.854-.079 1.337-.022 2.686-.022 4.105h5.072c-.227 1.807-.442 3.543-.668 5.315H9.77V30H4.426V16.333H0z"/></symbol><symbol viewBox="0 0 88 88" id="garant-icon-1" xmlns="http://www.w3.org/2000/svg"><rect width="88" height="88" rx="8"/><path d="M25 46.058V27.11l19-6.06 19 6.06v18.948a8.783 8.783 0 01-1.53 4.954l-.507.743.79.54-.79-.54a36.067 36.067 0 01-11.044 10.477L44 65.83l-5.919-3.598a36.067 36.067 0 01-11.044-10.477l-.508-.743A8.783 8.783 0 0125 46.058z"/><path d="M34.309 41.256a1.05 1.05 0 000 1.488l5.964 5.948c.411.41 1.079.41 1.49 0l11.928-11.897a1.05 1.05 0 000-1.487 1.056 1.056 0 00-1.49 0L41.017 46.461 35.8 41.256a1.056 1.056 0 00-1.491 0z"/></symbol><symbol viewBox="0 0 24 24" id="load" xmlns="http://www.w3.org/2000/svg"><path d="M7.727 9.417l-.358.001c.044-.112.069-.165.094-.218 1.074-2.001 3.422-3.144 5.545-2.642 2.117.495 3.472 1.876 4.084 4.076.175.628.65.932 1.18.766.5-.158.762-.693.587-1.301-.85-3.02-2.723-4.942-5.652-5.47-3.01-.542-5.42.64-7.168 3.303a2.366 2.366 0 01-.088.121l-.112.15.002-.488c.003-.372.005-.712-.008-1.052-.025-.561-.437-.95-.937-.938-.487.014-.88.417-.887.958a182.663 182.663 0 000 3.7c.007.562.381.958.912.965 1.143.013 2.292.013 3.435 0 .55 0 .93-.43.924-.978-.007-.535-.394-.938-.924-.952-.205-.004-.41-.002-.629-.001zm8.322 8.743c.83-.615 1.505-1.382 2.11-2.267l-.002.464c-.003.306-.006.61.002.904.02.608.419 1.024.943 1.004.519-.013.893-.436.893-1.024.007-1.19.007-2.379 0-3.568 0-.634-.368-1.024-.974-1.03a276.605 276.605 0 00-3.31 0c-.593.006-.992.41-.986.984.006.555.406.945.987.951.192.005.385.003.59.002l.334-.002-.036.081a1.844 1.844 0 01-.095.197c-1.362 2.438-4.378 3.396-6.782 2.14-1.467-.766-2.385-2.008-2.829-3.666-.162-.608-.65-.899-1.167-.734-.487.159-.737.668-.6 1.242 1.187 5.061 6.888 7.307 10.922 4.321z"/></symbol><symbol viewBox="0 0 26 26" id="loc-marker" xmlns="http://www.w3.org/2000/svg"><path fill-rule="evenodd" clip-rule="evenodd" d="M13 23s8-7.582 8-12a8 8 0 10-16 0c0 4.418 8 12 8 12zm0-8a4 4 0 100-8 4 4 0 000 8z"/></symbol><symbol viewBox="0 0 289 64" id="logo" xmlns="http://www.w3.org/2000/svg"><path d="M0 32C0 14.327 14.327 0 32 0h32v32c0 17.673-14.327 32-32 32H0V32z"/><rect x="54" y="26" width="12" height="16" rx="6" transform="rotate(90 54 26)"/><path fill-rule="evenodd" clip-rule="evenodd" d="M25.813 16.188a6.187 6.187 0 1112.375 0v9.625h.042A8.23 8.23 0 0035.438 32a8.23 8.23 0 002.792 6.188h-.042v9.624a6.187 6.187 0 11-12.376 0v-9.624h-9.625a6.187 6.187 0 110-12.376h9.625v-9.625z"/><path d="M79.728 33.176c-1.114 0-2.011-.326-2.69-.977-.652-.678-.978-1.587-.978-2.726V7.703c0-1.112.326-2.008.978-2.686C77.717 4.34 78.614 4 79.728 4c1.113 0 1.996.34 2.648 1.017.68.651 1.02 1.547 1.02 2.686v7.69h2.16l8.232-9.969c.76-.922 1.657-1.383 2.69-1.383.842 0 1.575.312 2.2.936.652.596.978 1.302.978 2.116 0 .813-.299 1.56-.896 2.238l-6.44 7.568c1.006.461 1.78.909 2.323 1.343a7.117 7.117 0 011.468 1.628c.434.624 1.086 1.695 1.956 3.214l2.527 4.517c.38.651.57 1.33.57 2.035 0 .976-.353 1.803-1.06 2.482-.706.678-1.521 1.017-2.445 1.017-1.304 0-2.336-.665-3.097-1.994l-3.75-6.836c-.597-1.112-1.222-1.885-1.874-2.32-.652-.433-1.657-.65-3.016-.65h-2.527v8.138c0 1.112-.34 2.007-1.019 2.685-.652.679-1.535 1.018-2.648 1.018zm37.507-19.247c0 5.181-.639 9.169-1.916 11.963-1.277 2.794-3.138 4.883-5.583 6.266-.87.516-1.698.773-2.486.773-.897 0-1.63-.284-2.201-.854a3.011 3.011 0 01-.856-2.157c0-.678.204-1.329.612-1.953.407-.65 1.018-1.22 1.833-1.709 2.256-1.519 3.383-5.195 3.383-11.027V7.703c0-1.112.299-1.967.897-2.564.597-.596 1.453-.895 2.567-.895h14.672c1.114 0 1.969.299 2.567.895.625.597.937 1.452.937 2.564v21.77c0 1.112-.339 2.007-1.018 2.685-.68.679-1.576 1.018-2.69 1.018-1.114 0-2.011-.326-2.69-.977-.652-.678-.978-1.587-.978-2.726v-19.37h-7.05v3.826zm37.57-7.569c.625-.895 1.25-1.505 1.875-1.831.652-.353 1.63-.529 2.934-.529 1.114 0 1.97.298 2.567.895.598.57.897 1.41.897 2.523v22.055c0 1.112-.34 2.007-1.019 2.685-.652.679-1.535 1.018-2.649 1.018s-2.01-.326-2.69-.977c-.652-.678-.978-1.587-.978-2.726V14.905l-9.984 15.015c-.652.923-1.25 1.628-1.794 2.116-.516.462-1.059.76-1.63.895-.543.163-1.222.245-2.037.245-1.114 0-1.97-.285-2.568-.855-.598-.597-.897-1.451-.897-2.563V7.703c0-1.112.326-2.008.979-2.686C138.49 4.34 139.386 4 140.5 4s1.997.34 2.649 1.017c.68.651 1.019 1.547 1.019 2.686V22.23l10.637-15.87zm36.249-2.32c1.114 0 1.997.34 2.649 1.018.679.651 1.019 1.533 1.019 2.645v21.77c0 1.112-.34 2.007-1.019 2.685-.652.679-1.535 1.018-2.649 1.018s-2.01-.326-2.69-.977c-.652-.678-.978-1.587-.978-2.726v-8.139h-11.737v8.139c0 1.112-.34 2.007-1.019 2.685-.652.679-1.535 1.018-2.649 1.018s-2.01-.326-2.69-.977c-.652-.678-.978-1.587-.978-2.726V7.703c0-1.112.326-1.994.978-2.645.68-.678 1.576-1.017 2.69-1.017 1.114 0 1.997.339 2.649 1.017.679.651 1.019 1.533 1.019 2.645v7.69h11.737v-7.69c0-1.112.326-1.994.978-2.645.68-.678 1.576-1.017 2.69-1.017zm26.872 2.32c.625-.895 1.25-1.505 1.875-1.831.652-.353 1.63-.529 2.934-.529 1.114 0 1.97.298 2.567.895.598.57.897 1.41.897 2.523v22.055c0 1.112-.34 2.007-1.019 2.685-.652.679-1.535 1.018-2.649 1.018s-2.01-.326-2.69-.977c-.652-.678-.978-1.587-.978-2.726V14.905l-9.984 15.015c-.653.923-1.25 1.628-1.794 2.116-.516.462-1.059.76-1.63.895-.543.163-1.222.245-2.037.245-1.114 0-1.97-.285-2.568-.855-.598-.597-.897-1.451-.897-2.563V7.703c0-1.112.326-2.008.979-2.686.679-.678 1.575-1.017 2.689-1.017s1.997.34 2.649 1.017c.68.651 1.019 1.547 1.019 2.686V22.23l10.637-15.87zm17.176 26.816c-1.114 0-2.01-.326-2.69-.977-.652-.678-.978-1.587-.978-2.726V7.703c0-1.112.326-2.008.978-2.686.68-.678 1.576-1.017 2.69-1.017 1.114 0 1.997.34 2.649 1.017.679.651 1.019 1.547 1.019 2.686v7.69h2.16l8.232-9.969c.761-.922 1.658-1.383 2.69-1.383.842 0 1.576.312 2.201.936.652.596.978 1.302.978 2.116 0 .813-.299 1.56-.897 2.238l-6.439 7.568c1.005.461 1.78.909 2.323 1.343a7.087 7.087 0 011.467 1.628c.435.624 1.087 1.695 1.956 3.214l2.527 4.517c.381.651.571 1.33.571 2.035 0 .976-.353 1.803-1.06 2.482-.706.678-1.521 1.017-2.445 1.017-1.304 0-2.337-.665-3.097-1.994l-3.75-6.836c-.597-1.112-1.222-1.885-1.874-2.32-.652-.433-1.658-.65-3.016-.65h-2.527v8.138c0 1.112-.34 2.007-1.019 2.685-.652.679-1.535 1.018-2.649 1.018zm53.531-4.843c.245.516.367 1.018.367 1.506 0 .895-.367 1.655-1.1 2.279-.707.624-1.522.936-2.446.936a3.14 3.14 0 01-1.711-.489c-.516-.325-.924-.813-1.223-1.465l-1.834-4.11h-13.204l-1.875 4.11c-.299.651-.72 1.14-1.263 1.465a3.144 3.144 0 01-1.712.489c-.924 0-1.766-.312-2.527-.936-.733-.624-1.1-1.384-1.1-2.279 0-.488.122-.99.367-1.506L270.131 6.28a3.692 3.692 0 011.549-1.669 4.569 4.569 0 012.323-.61c.815 0 1.575.203 2.282.61a3.64 3.64 0 011.589 1.669l10.759 22.054zm-18.624-6.958h8.15l-4.075-9.074-4.075 9.074zM76.284 59.939c-.394 0-.707-.115-.938-.346-.23-.244-.346-.57-.346-.977V46.755c0-.38.122-.685.367-.916.244-.244.557-.366.937-.366h9.618c.38 0 .686.122.917.366.245.231.367.536.367.916v11.882c0 .393-.122.712-.367.956-.23.23-.537.346-.917.346-.394 0-.706-.115-.937-.346-.231-.244-.347-.563-.347-.956V47.569h-7.05v11.068c0 .393-.122.712-.367.956-.23.23-.543.346-.937.346zm26.754-10.62c0 2.02-.136 3.702-.407 5.045-.258 1.33-.659 2.408-1.202 3.235a6.42 6.42 0 01-2.059 1.994 1.574 1.574 0 01-.815.244 1.08 1.08 0 01-.794-.325 1.091 1.091 0 01-.306-.773c0-.231.068-.455.204-.672.136-.217.34-.407.611-.57.76-.406 1.325-1.2 1.691-2.38.367-1.194.551-2.984.551-5.371v-3.032c0-.393.108-.698.326-.915.217-.217.523-.326.917-.326h7.641c.394 0 .693.109.897.326.217.217.326.522.326.915v11.923c0 .393-.123.712-.367.956-.231.23-.537.346-.917.346-.394 0-.707-.115-.938-.346-.23-.244-.346-.563-.346-.956V47.569h-5.013v1.75zM133.787 60c-1.942 0-3.498-.57-4.666-1.709-1.155-1.14-1.814-2.706-1.977-4.7h-2.669v5.046c0 .393-.122.712-.367.956-.231.23-.543.346-.937.346s-.707-.115-.938-.346c-.231-.244-.346-.563-.346-.956V46.653c0-.393.115-.705.346-.936.245-.244.557-.366.938-.366.394 0 .706.122.937.366.245.23.367.543.367.936v4.822h2.69c.203-1.94.883-3.452 2.037-4.537 1.155-1.099 2.683-1.648 4.585-1.648 1.386 0 2.581.299 3.587.895 1.005.597 1.772 1.445 2.302 2.543.53 1.1.795 2.401.795 3.907 0 1.505-.265 2.814-.795 3.927-.53 1.098-1.297 1.946-2.302 2.543-1.006.597-2.201.895-3.587.895zm0-2.096c1.304 0 2.31-.447 3.016-1.342.706-.91 1.06-2.218 1.06-3.927 0-1.71-.354-3.011-1.06-3.907-.693-.895-1.698-1.342-3.016-1.342s-2.33.447-3.036 1.342c-.693.896-1.039 2.198-1.039 3.907s.346 3.018 1.039 3.927c.706.895 1.718 1.342 3.036 1.342zM157.689 60c-1.385 0-2.601-.298-3.647-.895-1.033-.597-1.827-1.451-2.384-2.564-.557-1.112-.836-2.414-.836-3.906s.279-2.788.836-3.886c.557-1.112 1.351-1.967 2.384-2.564 1.046-.596 2.262-.895 3.647-.895.897 0 1.739.136 2.527.407a6.413 6.413 0 012.099 1.14c.176.135.299.277.367.427.068.149.102.332.102.549 0 .298-.082.55-.245.753-.163.203-.36.305-.591.305-.272 0-.55-.095-.835-.285-.585-.434-1.128-.732-1.631-.895a5.012 5.012 0 00-1.67-.265c-1.413 0-2.486.441-3.22 1.323-.72.881-1.08 2.177-1.08 3.886 0 1.723.36 3.025 1.08 3.906.734.882 1.807 1.323 3.22 1.323.584 0 1.12-.088 1.609-.265.503-.176 1.067-.474 1.692-.895a2.8 2.8 0 01.407-.203c.136-.055.279-.082.428-.082.231 0 .428.102.591.305.163.204.245.455.245.753 0 .204-.034.387-.102.55a1.179 1.179 0 01-.367.427 6.72 6.72 0 01-2.099 1.16 8.08 8.08 0 01-2.527.386z"/><rect x="178" y="48" width="8" height="8" rx="4"/><rect x="194" y="48" width="8" height="8" rx="4"/><rect x="210" y="48" width="8" height="8" rx="4"/></symbol><symbol viewBox="0 0 32 32" id="peaple" xmlns="http://www.w3.org/2000/svg"><path d="M15.998 17.268c3.793 0 6.876-2.976 6.876-6.633C22.874 6.98 19.791 4 16 4c-3.79 0-6.873 2.976-6.873 6.636S12.21 17.268 16 17.268zm0-11.5c2.78 0 5.041 2.182 5.041 4.865 0 2.682-2.261 4.864-5.04 4.864-2.78.003-5.041-2.18-5.041-4.861 0-2.683 2.261-4.868 5.04-4.868zM27 26.114V27H5v-.886c0-3.921 2.22-7.345 5.508-9.182.54.437 1.135.808 1.776 1.107-2.94 1.265-5.07 3.973-5.404 7.19h18.24c-.333-3.217-2.463-5.925-5.404-7.19a8.584 8.584 0 001.776-1.107C24.778 18.769 27 22.193 27 26.115z"/></symbol><symbol viewBox="0 0 24 24" id="pen-icon" xmlns="http://www.w3.org/2000/svg"><path d="M15.076 4.384c-.292-.283-.514-.495-.734-.71-.426-.417-.898-.417-1.321.006a1869.62 1869.62 0 00-3.733 3.742c-.194.197-.407.328-.694.318a.806.806 0 01-.742-.465.8.8 0 01.066-.872c.06-.087.138-.16.212-.234l3.649-3.64c1.125-1.12 2.687-1.124 3.807-.004.206.206.398.421.622.66.456-.461.882-.889 1.31-1.317a2.83 2.83 0 011.436-.79c.989-.213 1.87.011 2.626.68.297.262.582.543.823.856.884 1.146.774 2.74-.25 3.786-.716.73-1.443 1.446-2.166 2.168-3.57 3.567-7.14 7.135-10.708 10.704-.091.091-.199.18-.314.236-2.217 1.107-4.436 2.21-6.655 3.314-.433.215-.78.18-1.064-.107-.283-.286-.323-.648-.113-1.07 1.041-2.083 2.091-4.162 3.118-6.25.19-.386.43-.711.734-1.013 3.272-3.255 6.534-6.522 9.799-9.782.075-.078.17-.127.292-.216zM6.53 15.33l2.097 2.103c3.225-3.228 6.474-6.474 9.71-9.71L16.22 5.617c-3.232 3.237-6.478 6.49-9.691 9.712zm13.09-8.824c.458-.454.933-.9 1.378-1.373.346-.367.435-.92.147-1.315a4.232 4.232 0 00-1.003-.986c-.398-.274-.891-.227-1.252.1-.498.451-.942.966-1.393 1.438l2.123 2.136zM5.422 16.859c-.526 1.07-1.068 2.172-1.609 3.276l.042.035c1.1-.54 2.196-1.078 3.277-1.611-.575-.57-1.139-1.132-1.71-1.7z"/></symbol><symbol viewBox="0 0 33 32" id="phone" xmlns="http://www.w3.org/2000/svg"><path d="M14 5a1 1 0 100 2h5a1 1 0 100-2h-5zm1.5 20a1 1 0 112 0 1 1 0 01-2 0z"/><path fill-rule="evenodd" clip-rule="evenodd" d="M8.5 6a4 4 0 014-4h8a4 4 0 014 4v19a4 4 0 01-4 4h-8a4 4 0 01-4-4V6zm4-2a2 2 0 00-2 2v2h12V6a2 2 0 00-2-2h-8zm-2 17V10h12v11h-12zm0 2v2a2 2 0 002 2h8a2 2 0 002-2v-2h-12z"/></symbol><symbol viewBox="0 0 70 70" id="play" xmlns="http://www.w3.org/2000/svg"><path d="M46.545 33.629L32.01 23.063a1.753 1.753 0 00-2.783 1.414v21.125a1.747 1.747 0 002.783 1.411l14.535-10.556c.46-.338.727-.86.727-1.414a1.74 1.74 0 00-.727-1.414z"/><path d="M35.001.002C15.667.002 0 15.67 0 35.003c0 19.327 15.667 34.99 35.001 34.99C54.331 69.993 70 54.328 70 35.003c.002-19.333-15.67-35-34.999-35zm0 64.151c-16.1 0-29.154-13.047-29.154-29.15C5.847 18.907 18.9 5.844 35 5.844c16.099 0 29.15 13.061 29.15 29.16.002 16.102-13.051 29.15-29.15 29.15z"/></symbol><symbol viewBox="0 0 17 16" id="rev-arrow" xmlns="http://www.w3.org/2000/svg"><path d="M16.707 8.707a1 1 0 000-1.414L10.343.929A1 1 0 108.93 2.343L14.586 8l-5.657 5.657a1 1 0 001.414 1.414l6.364-6.364zM0 9h16V7H0v2z"/></symbol><symbol viewBox="0 0 24 24" id="reviews-icon" xmlns="http://www.w3.org/2000/svg"><path d="M10.5 9a1.5 1.5 0 11-3 0 1.5 1.5 0 013 0zm4.5 1.5a1.5 1.5 0 100-3 1.5 1.5 0 000 3z"/><path fill-rule="evenodd" clip-rule="evenodd" d="M9 23v-6H5a4 4 0 01-4-4V5a4 4 0 014-4h14a4 4 0 014 4v8a4 4 0 01-4 4h-4l-6 6zm2-8v3.172L14.172 15H19a2 2 0 002-2V5a2 2 0 00-2-2H5a2 2 0 00-2 2v8a2 2 0 002 2h6z"/></symbol><symbol viewBox="0 0 29 29" id="search" xmlns="http://www.w3.org/2000/svg"><path fill-rule="evenodd" clip-rule="evenodd" d="M18.953 21.782A11.946 11.946 0 0112 24C5.373 24 0 18.627 0 12S5.373 0 12 0s12 5.373 12 12c0 2.592-.822 4.991-2.218 6.953l5.805 5.806a2 2 0 11-2.828 2.828l-5.806-5.805zM20 12a8 8 0 11-16 0 8 8 0 0116 0z"/></symbol><symbol viewBox="0 0 26 26" id="tel" xmlns="http://www.w3.org/2000/svg"><path d="M17.921 23c-1.374-.158-2.582-.524-3.706-1.098-4.94-2.52-8.604-6.238-10.67-11.436-.266-.666-.383-1.38-.524-2.088a1.18 1.18 0 01.108-.757c.916-1.638 2.074-3.077 3.548-4.258.683-.549 1.383-.483 1.866.25C9.409 4.926 10.25 6.265 11 7.654c.55 1.023.408 1.389-.458 2.17a8.619 8.619 0 01-.283.25c-.75.632-.758.632-.35 1.505 1.05 2.23 2.732 3.801 5.022 4.725.275.108.45.091.633-.158.25-.333.542-.633.817-.94.458-.516 1.007-.666 1.649-.375.591.275 1.182.55 1.74.882.833.5 1.633 1.048 2.44 1.58.167.117.334.258.459.416.425.516.466 1.007-.025 1.539a34.395 34.395 0 01-2.515 2.412c-.509.44-1.108.782-1.683 1.14-.183.116-.416.157-.525.199z"/></symbol><symbol viewBox="0 0 18 16" id="telegram" xmlns="http://www.w3.org/2000/svg"><path d="M7.064 10.67c1.098-1.02 2.16-1.996 3.222-2.98 1.548-1.439 3.103-2.87 4.644-4.317.176-.16.267-.412.394-.622-.303-.188-.507.05-.718.188a2808.512 2808.512 0 00-9.702 6.335c-.218.145-.4.173-.647.087-1.133-.413-2.28-.803-3.42-1.2-.02-.008-.049-.008-.07-.022C.394 7.994.014 7.813 0 7.35c-.014-.455.38-.593.718-.73C6.03 4.472 11.342 2.332 16.654.19a2.7 2.7 0 01.745-.188c.43-.036.669.246.584.68-.633 3.305-1.273 6.61-1.913 9.907l-.866 4.455c-.183.932-1.006 1.243-1.752.658-1.934-1.519-3.87-3.045-5.804-4.57a34.519 34.519 0 00-.584-.463z"/></symbol><symbol viewBox="0 0 56 56" id="title-icon" xmlns="http://www.w3.org/2000/svg"><path d="M0 28C0 12.536 12.536 0 28 0s28 12.536 28 28-12.536 28-28 28H0V28z"/><path d="M27.457 24.628v-6.47c0-.704.268-1.267.93-1.61.648-.329 1.279-.282 1.862.156 4.465 3.313 8.914 6.61 13.363 9.94.962.719.962 1.953 0 2.672-4.465 3.345-8.945 6.658-13.426 9.987-.552.407-1.151.485-1.782.172-.647-.328-.947-.89-.947-1.594-.016-1.797 0-3.595 0-5.392v-1.11c-.331.22-.552.375-.757.532-3.266 2.422-6.516 4.845-9.781 7.252-1.152.86-2.493.5-2.84-.735-.063-.25-.063-.516-.063-.766 0-6.423 0-12.862-.016-19.286 0-.797.205-1.453.962-1.813.742-.36 1.404-.156 2.051.328 3.424 2.517 6.847 5.049 10.444 7.737zm-10.05 9.986c3.03-2.25 5.948-4.422 8.93-6.642-3.013-2.235-5.916-4.407-8.93-6.642v13.285zm13.505-.015c3.013-2.25 5.932-4.407 8.898-6.627a6559.585 6559.585 0 01-8.898-6.61v13.237z"/></symbol><symbol viewBox="0 0 24 14" id="vk" xmlns="http://www.w3.org/2000/svg"><path d="M7.908.807C8.245.606 8.554.308 8.91.232c1.386-.307 2.791-.288 4.187-.067.693.115.955.45.955 1.198.01 1.122-.037 2.234-.047 3.356 0 .46-.009.93.075 1.381.047.25.235.566.44.671.15.077.497-.096.666-.259.974-.91 1.573-2.09 2.182-3.26.319-.604.58-1.237.834-1.87.196-.489.468-.719 1.011-.71 1.265.03 2.53-.018 3.794-.038.871-.01 1.227.413.834 1.19-.534 1.054-1.19 2.051-1.836 3.04-.515.785-1.106 1.504-1.63 2.272-.46.67-.403 1.064.15 1.658.88.95 1.798 1.86 2.65 2.839.31.355.553.815.722 1.265.206.556-.066.978-.646 1.007-1.293.067-2.595.115-3.888.087-.712-.01-1.302-.432-1.789-.94-.478-.499-.927-1.036-1.396-1.554-.093-.105-.196-.2-.3-.306-.898-.883-1.423-.336-1.695.527-.121.383-.121.815-.15 1.227-.056.71-.3.988-.992.978-.965-.019-1.958.048-2.885-.153-1.94-.422-3.513-1.553-4.777-3.088C3.149 7.98 1.519 4.892.133 1.67-.157.999.021.692.733.673A174.05 174.05 0 013.964.625c.58-.01.937.278 1.19.815a84.305 84.305 0 002.07 4.123c.215.412.562.767.908 1.074.46.412.88.288 1.059-.316.309-1.074.318-2.167.234-3.28a6.45 6.45 0 00-.075-.613C9.2 1.526 9.078 1.402 7.992.96 7.964.913 7.936.855 7.908.807z"/></symbol><symbol viewBox="0 0 24 24" id="whatsapp" xmlns="http://www.w3.org/2000/svg"><path d="M13.246 14.031c-1.446-.703-2.535-1.802-3.455-3.097.073-.1.147-.195.219-.29.213-.278.415-.541.57-.836.112-.216.15-.535.074-.75-.281-.78-.6-1.54-.967-2.281-.112-.226-.413-.517-.638-.526-.808-.028-1.784.14-2.282 1.004-.582 1.014-.741 2.103-.281 3.154.413.929.957 1.82 1.558 2.646 1.427 1.943 3.268 3.342 5.624 3.999.78.216 1.568.413 2.395.244 1.276-.254 2.168-1.23 2.262-2.516.028-.413-.094-.722-.497-.91-.453-.206-.903-.42-1.353-.633a146.56 146.56 0 00-.807-.38c-.441-.198-.817-.132-1.108.28-.08.114-.168.221-.257.329-.11.133-.222.268-.316.413-.206.31-.422.31-.741.15z"/><path fill-rule="evenodd" clip-rule="evenodd" d="M6.927 22.244c1.652.788 3.38 1.192 5.21 1.267.266-.035.531-.064.798-.094.526-.058 1.054-.116 1.578-.216 6.056-1.126 10.281-7.067 9.361-13.158C22.87 3.417 16.476-1.08 9.904.226c-7.84 1.558-11.859 10.042-8.113 17.1a.988.988 0 01.057.694 354.31 354.31 0 01-1.132 3.39c-.228.675-.455 1.35-.68 2.026-.047.15-.057.413.028.497.084.094.338.075.497.028.816-.253 1.63-.51 2.444-.769 1.06-.336 2.118-.672 3.18-.995.226-.075.535-.056.742.047zm-2.382-2.107c-.294.093-.595.187-.904.286.11-.322.213-.632.313-.933.201-.603.391-1.172.598-1.742.112-.31.065-.554-.113-.826-2.272-3.416-2.15-7.536.32-10.802C8.147 1.615 15 1.202 18.897 5.312c2.497 2.647 3.305 5.8 2.15 9.264-1.174 3.529-3.718 5.631-7.38 6.288-2.234.404-4.347-.028-6.3-1.201-.347-.207-.648-.244-1.014-.113a61.36 61.36 0 01-1.809.587z"/></symbol></svg>