<svg width="40" height="40" viewBox="0 0 40 40" fill="none" xmlns="http://www.w3.org/2000/svg">
<g clip-path="url(#clip0_1627_2057)">
<rect width="40" height="40" fill="white"/>
<circle cx="20" cy="20" r="20" transform="rotate(90 20 20)" fill="#2770F1"/>
<path d="M27.7782 27.7779C28.5592 26.9968 28.5592 25.7305 27.7782 24.9495L22.8286 19.9998L27.7782 15.0502C28.5593 14.2691 28.5593 13.0028 27.7782 12.2217C26.9972 11.4407 25.7309 11.4407 24.9498 12.2217L20.0001 17.1714L15.0503 12.2215C14.2692 11.4405 13.0029 11.4405 12.2218 12.2215C11.4408 13.0026 11.4408 14.2689 12.2218 15.05L17.1717 19.9998L12.2219 24.9496C11.4408 25.7307 11.4408 26.997 12.2219 27.7781C13.0029 28.5591 14.2693 28.5591 15.0503 27.7781L20.0001 22.8283L24.9498 27.7779C25.7308 28.5589 26.9971 28.5589 27.7782 27.7779Z" fill="white"/>
</g>
<defs>
<clipPath id="clip0_1627_2057">
<rect width="40" height="40" fill="white"/>
</clipPath>
</defs>
</svg>
