<svg width="52" height="52" viewBox="0 0 52 52" fill="none" xmlns="http://www.w3.org/2000/svg">
<path fill-rule="evenodd" clip-rule="evenodd" d="M33.6117 36.4399C30.1639 39.2614 25.7567 40.9541 20.9541 40.9541C9.90839 40.9541 0.954102 31.9998 0.954102 20.9541C0.954102 9.90839 9.90839 0.954102 20.9541 0.954102C31.9998 0.954102 40.9541 9.90839 40.9541 20.9541C40.9541 25.7566 39.2614 30.1637 36.4401 33.6115L51.0461 48.2175L48.2178 51.046L33.6117 36.4399ZM36.9541 20.9541C36.9541 29.7906 29.7906 36.9541 20.9541 36.9541C12.1176 36.9541 4.9541 29.7906 4.9541 20.9541C4.9541 12.1176 12.1176 4.9541 20.9541 4.9541C29.7906 4.9541 36.9541 12.1176 36.9541 20.9541Z" fill="white"/>
<path fill-rule="evenodd" clip-rule="evenodd" d="M22.5 15H19.5V19.5H15V22.5H19.5V27H22.5V22.5H27V19.5H22.5V15Z" fill="white"/>
</svg>
